<svg width="48" height="70" viewBox="0 0 48 70" fill="none" xmlns="http://www.w3.org/2000/svg">
<path d="M24.0611 30.9027L23.6131 29.9633L23.1597 30.9L19.1379 39.209L10.2078 40.5137L9.22712 40.657L9.9251 41.3606L16.3752 47.8627L14.82 57.0128L14.6487 58.0202L15.5492 57.5373L23.5457 53.2485L31.5207 57.5835L32.4182 58.0714L32.2529 57.0633L30.7506 47.9043L37.2382 41.4396L37.9403 40.74L36.9604 40.5911L28.0347 39.2347L24.0611 30.9027ZM27.5175 13.6393L27.5553 0.579173L39.9838 0.615143L39.9329 18.2188C36.1711 15.7826 31.934 14.2185 27.5175 13.6393ZM7.36157 18.1245L7.41252 0.520877L19.841 0.556847L19.8032 13.617C15.3835 14.1706 11.1374 15.7101 7.36157 18.1245ZM39.78 61.6927C35.4527 66.114 29.5968 68.5854 23.5014 68.5677C17.4059 68.5501 11.5644 66.0449 7.2628 61.5986C2.96074 57.1519 0.551738 51.1279 0.569904 44.8513C0.588069 38.5746 3.0319 32.5647 7.35962 28.1429C11.6869 23.7216 17.5428 21.2503 23.6383 21.2679C29.7337 21.2856 35.5752 23.7908 39.8768 28.237C44.1789 32.6837 46.5879 38.7077 46.5697 44.9844C46.5515 51.2611 44.1077 57.271 39.78 61.6927Z" fill="url(#paint0_linear_123_6)" stroke="black"/>
<defs>
<linearGradient id="paint0_linear_123_6" x1="24.2054" y1="-1.93053" x2="23.4999" y2="69.0677" gradientUnits="userSpaceOnUse">
<stop stop-color="#FFF407"/>
<stop offset="1" stop-color="#F7CF00"/>
</linearGradient>
</defs>
</svg>
