<svg width="36" height="36" viewBox="0 0 36 36" fill="none" xmlns="http://www.w3.org/2000/svg">
<path d="M16.205 35.926C13.432 35.6605 10.6244 34.6652 8.21265 33.0925C6.19165 31.7747 5.73526 31.2329 5.73526 30.1518C5.73526 27.9801 8.12437 24.1764 12.212 19.8403C14.5335 17.3777 17.7672 14.4911 18.1169 14.5693C18.7966 14.7212 24.2318 20.02 26.2665 22.5143C29.4841 26.4587 30.9633 29.6883 30.2118 31.1282C29.6406 32.2227 26.096 34.3619 23.4919 35.1838C21.3456 35.8611 18.5269 36.1482 16.205 35.926ZM3.00567 27.8938C1.32626 25.3188 0.477774 22.7837 0.0681169 19.1172C-0.0671527 17.9065 -0.0186791 17.2139 0.375279 14.7289C0.866292 11.6317 2.63108 8.04859 4.75164 5.84348C5.6548 4.9043 5.73546 4.88142 6.83635 5.25208C8.17326 5.70221 9.60097 6.68769 11.8151 8.68872L13.107 9.85623L12.4016 10.7224C9.12682 14.7432 5.66986 20.4426 4.36704 23.9687C3.65878 25.8856 3.37311 27.8099 3.67785 28.611C3.8836 29.1518 3.69462 28.9502 3.00567 27.8938ZM32.4844 28.3318C32.6503 27.5224 32.4405 26.0357 31.9487 24.5364C30.8836 21.2892 27.3236 15.2483 24.0546 11.1411L23.0256 9.84819L24.1389 8.82647C25.5926 7.49239 26.6019 6.69357 27.6909 6.0152C28.5502 5.47988 29.7783 5.00599 30.3062 5.00599C30.6316 5.00599 31.7773 6.19436 32.7023 7.49125C34.1348 9.49987 35.1886 11.9348 35.7225 14.4695C36.0675 16.1073 36.0963 19.613 35.7781 21.2468C35.517 22.5875 34.9657 24.3267 34.4279 25.5062C34.0249 26.39 33.0226 28.1064 32.5834 28.6649C32.3576 28.9521 32.3574 28.9515 32.4844 28.3318ZM16.5019 4.39281C14.9936 3.62728 12.6667 2.80553 11.3813 2.58445C10.9307 2.50694 10.162 2.46372 9.67315 2.48839C8.61262 2.54191 8.65999 2.48649 10.3613 1.68315C11.7757 1.01526 12.9555 0.622518 14.5572 0.286405C16.3589 -0.0916988 19.7455 -0.0961361 21.5185 0.277283C23.4335 0.680608 25.6886 1.51931 26.9592 2.30085L27.3369 2.53313L26.4704 2.4894C24.7486 2.4025 22.2392 3.09774 19.5451 4.40813C18.7324 4.80338 18.0255 5.11906 17.974 5.10963C17.9226 5.10021 17.2601 4.77764 16.5019 4.39281Z" fill="white"/>
</svg>
